<?xml version="1.0" encoding="UTF-8" standalone="no"?>
<svg
   width="53"
   height="30"
   viewBox="0 0 53 30"
   fill="none"
   version="1.1"
   id="svg31"
   sodipodi:docname="InputBoxBackground copy.svg"
   inkscape:version="1.3.2 (091e20e, 2023-11-25)"
   xmlns:inkscape="http://www.inkscape.org/namespaces/inkscape"
   xmlns:sodipodi="http://sodipodi.sourceforge.net/DTD/sodipodi-0.dtd"
   xmlns="http://www.w3.org/2000/svg"
   xmlns:svg="http://www.w3.org/2000/svg">
  <sodipodi:namedview
     id="namedview31"
     pagecolor="#ffffff"
     bordercolor="#000000"
     borderopacity="0.25"
     inkscape:showpageshadow="2"
     inkscape:pageopacity="0.0"
     inkscape:pagecheckerboard="0"
     inkscape:deskcolor="#d1d1d1"
     inkscape:zoom="3.3950384"
     inkscape:cx="13.40191"
     inkscape:cy="15.316469"
     inkscape:window-width="1312"
     inkscape:window-height="449"
     inkscape:window-x="0"
     inkscape:window-y="25"
     inkscape:window-maximized="0"
     inkscape:current-layer="svg31" />
  <path
     d="M 10.694237,25.950141 C 5.9794528,25.965071 2.1453283,22.155015 2.1304912,17.440193 L 2.1183163,13.574442 C 2.1034792,8.8596191 5.9135213,5.0255429 10.628305,5.0107008 l 8.053655,-0.025357 c 9.684585,0.5227765 14.97951,0.4737585 24.241501,-0.076332 l 1.69129,-0.00532 c 3.024543,-0.00953 5.484201,2.4346597 5.493658,5.4592323 l 0.03146,9.986494 c 0.0095,3.024645 -2.434659,5.484201 -5.459205,5.493762 l -1.691293,0.0053 c -9.401186,-0.541056 -14.704198,-0.565553 -24.241503,0.07635 z"
     fill="#e4e4e7"
     id="path1" />
  <path
     d="m 18.735819,3.9867871 -0.02843,-0.00153 -0.02853,8.91e-5 -8.053695,0.025352 C 5.3580965,4.0272902 1.1017437,8.3104914 1.1183282,13.577551 l 0.012175,3.865751 c 0.01657,5.267158 4.2998176,9.523464 9.5668407,9.506846 l 8.053747,-0.02536 0.03196,-1.11e-4 0.03201,-0.0021 c 9.491755,-0.638765 14.752882,-0.614599 24.116848,-0.07571 l 0.03033,0.0017 0.03024,-2.6e-5 1.691293,-0.0053 c 3.576874,-0.01123 6.467341,-2.920002 6.456107,-6.496876 l -0.03146,-9.986522 C 51.097186,6.782924 48.188421,3.8924272 44.611543,3.9036911 l -1.69129,0.00532 -0.02803,1.02e-4 -0.02803,0.00166 c -9.226349,0.5479736 -14.483537,0.5966491 -24.128376,0.07601 z"
     stroke="#09090b"
     stroke-opacity="0.32"
     stroke-width="2"
     id="path2" />
  <path
     d="M 8.1422454,23.272974 C 5.9088239,22.973059 4.2395253,21.070626 4.2324229,18.817218 L 4.2115452,12.185449 C 4.2044554,9.9319414 5.8617353,8.0191397 8.0932319,7.7051121 L 11.816477,7.1813093 c 0.77333,-0.1088066 1.557936,-0.1109814 2.331845,-0.00648 l 4.078847,0.5508059 c 8.280595,0.457162 12.387929,0.444225 20.501064,0.4186803 l 0.584803,-0.00184 c 3.024641,-0.00952 5.484201,2.4346598 5.49376,5.4592158 l 0.01119,3.543608 c 0.0095,3.024644 -2.434659,5.484201 -5.459304,5.493749 l -0.584801,0.0019 c -8.435279,0.02654 -12.381492,0.03899 -20.497972,0.547794 l -4.075319,0.57644 c -0.773307,0.109434 -1.557891,0.112227 -2.33186,0.0082 z"
     fill="#fafafa"
     id="path3" />
  <path
     d="m 15.134887,23.97345 c -0.150244,0.01819 -0.293705,-0.07283 -0.342934,-0.215892 -2.161494,-6.276474 -2.190444,-9.989726 -0.05044,-16.5751564 0.0472,-0.1452348 0.191141,-0.2391125 0.34286,-0.2217496 l 7.594793,0.8692653 c 0.192456,0.022034 0.321554,0.2095944 0.276973,0.3981342 -1.33022,5.6155715 -1.297106,8.8935385 0.04583,14.4285445 0.04568,0.188073 -0.0823,0.37617 -0.274493,0.399362 z"
     fill="#18181b"
     id="path4" />
  <path
     d="m 15.134887,23.97345 c -0.150244,0.01819 -0.293705,-0.07283 -0.342934,-0.215892 -2.161494,-6.276474 -2.190444,-9.989726 -0.05044,-16.5751564 0.0472,-0.1452348 0.191141,-0.2391125 0.34286,-0.2217496 l 7.594793,0.8692653 c 0.192456,0.022034 0.321554,0.2095944 0.276973,0.3981342 -1.33022,5.6155715 -1.297106,8.8935385 0.04583,14.4285445 0.04568,0.188073 -0.0823,0.37617 -0.274493,0.399362 z"
     fill="url(#paint0_linear_1_62)"
     id="path5"
     style="fill:url(#paint0_linear_1_62)" />
  <path
     d="m 2.1996676,12.347803 0.2984031,0.08461 c 0.1499146,0.04244 0.2477561,0.186684 0.2333328,0.341796 -0.1957112,2.10453 -0.1883663,3.38627 0.017314,5.46258 0.015349,0.155028 -0.081574,0.299762 -0.2311687,0.34323 L 2.219564,18.666501 C 2.1606876,18.26612 2.1295724,17.856735 2.1282584,17.440314 l -0.012175,-3.86575 c -0.00131,-0.41652 0.027219,-0.826062 0.083584,-1.226761 z"
     fill="#18181b"
     id="path6" />
  <path
     d="m 47.732355,22.729633 c 0.159788,0.02454 0.313694,-0.07483 0.35796,-0.230423 1.483302,-5.218871 1.486489,-8.663612 -0.04808,-14.2664376 -0.04322,-0.15797 -0.199281,-0.259402 -0.360979,-0.2334921 l -2.518539,0.4033383 c -0.195435,0.031301 -0.316361,0.2306365 -0.256966,0.4194667 1.503938,4.7832017 1.504902,8.4377017 0.04393,13.1001087 -0.05942,0.189565 0.06279,0.389382 0.259163,0.419529 z"
     fill="url(#paint1_linear_1_62)"
     id="path7"
     style="fill:url(#paint1_linear_1_62)" />
  <path
     d="m 32.835832,23.151295 -8.943272,0.179735 -8.37463,1.053848 c -0.08213,0.01033 -0.134205,0.09338 -0.107798,0.171889 0.01797,0.05346 0.06818,0.08941 0.124635,0.08925 l 16.866737,-0.05316 c 0.116755,-3.33e-4 0.224231,-0.06391 0.280821,-0.166046 l 0.441771,-0.797295 c 0.120348,-0.217176 -0.03991,-0.48316 -0.288264,-0.47822 z"
     fill="url(#paint2_linear_1_62)"
     id="path8"
     style="fill:url(#paint2_linear_1_62)" />
  <path
     d="M 32.788063,7.6693609 23.843822,7.5459348 15.462734,6.5448458 c -0.08221,-0.00983 -0.134807,-0.092519 -0.108887,-0.1711694 0.01762,-0.053569 0.06764,-0.08982 0.124002,-0.089996 l 16.866832,-0.053113 c 0.116758,-3.734e-4 0.224559,0.062467 0.281803,0.1642383 l 0.446825,0.7945245 c 0.121734,0.2164672 -0.03693,0.483451 -0.285246,0.4800303 z"
     fill="url(#paint3_linear_1_62)"
     id="path9"
     style="fill:url(#paint3_linear_1_62)" />
  <path
     d="m 33.875373,23.317849 -0.400215,0.806655 c -0.106405,0.214497 0.05011,0.4661 0.289688,0.465297 l 9.850904,-0.03099 c 0.318721,-9.88e-4 0.442635,-0.414796 0.176818,-0.590749 L 42.58205,23.166505 c -0.05303,-0.0351 -0.115285,-0.05382 -0.178915,-0.05355 l -8.240171,0.02589 c -0.122113,4.84e-4 -0.233427,0.06971 -0.287592,0.179003 z"
     fill="url(#paint4_linear_1_62)"
     id="path10"
     style="fill:url(#paint4_linear_1_62)" />
  <path
     d="M 33.82536,7.4980232 33.420156,6.6939287 C 33.312405,6.4800774 33.467335,6.2275604 33.706802,6.226804 l 9.851008,-0.031012 c 0.318717,-9.985e-4 0.445159,0.411985 0.180517,0.5896225 l -1.205525,0.8091682 c -0.05274,0.035455 -0.114898,0.054475 -0.178519,0.054666 l -8.24018,0.025961 C 33.992001,7.6755835 33.880288,7.6069911 33.82536,7.4980232 Z"
     fill="url(#paint5_linear_1_62)"
     id="path11"
     style="fill:url(#paint5_linear_1_62)" />
  <path
     d="m 50.003762,21.572393 c -0.281032,1.250098 -0.98988,2.338937 -1.965025,3.104208 -0.02485,-0.05876 -0.04427,-0.120771 -0.05741,-0.185416 l -0.01216,-0.05958 c -0.04849,-0.23862 -0.0051,-0.48684 0.121482,-0.694871 l 1.099987,-1.807337 c 0.140031,-0.230222 0.38965,-0.370967 0.659068,-0.371846 0.05273,-2.19e-4 0.104297,0.005 0.154052,0.01485 z"
     fill="#ef4444"
     id="path12" />
  <path
     d="m 48.013525,6.069442 c 0.985841,0.7736799 1.699841,1.8783679 1.9743,3.1473285 -0.0549,0.012586 -0.112186,0.019298 -0.170869,0.019495 C 49.547543,9.2371143 49.297063,9.0978819 49.155473,8.868606 L 48.044201,7.0682215 C 47.916271,6.8609528 47.871363,6.6130389 47.91836,6.3740559 l 0.01174,-0.059661 c 0.01706,-0.086749 0.04543,-0.1688698 0.08343,-0.2449524 z"
     fill="#ef4444"
     id="path13" />
  <path
     d="m 50.114653,12.778504 0.01728,5.476444 -0.161134,6.28e-4 c -0.177953,4.74e-4 -0.322638,-0.143292 -0.323143,-0.321146 l -0.01518,-4.832183 c -5.74e-4,-0.177966 0.143192,-0.32264 0.321053,-0.323205 z"
     fill="#18181b"
     id="path14" />
  <path
     d="m 22.017565,16.734413 -8.464996,-5.121928 c 0.264482,-1.356496 0.660415,-2.8061133 1.188304,-4.4305776 0.0472,-0.1452348 0.19114,-0.2391224 0.34286,-0.2217595 l 7.594693,0.8692628 c 0.192556,0.022037 0.321654,0.2096068 0.276973,0.3981342 -0.791221,3.3403651 -1.100139,5.8536611 -0.937834,8.5068681 z"
     fill="url(#paint6_linear_1_62)"
     id="path15"
     style="fill:url(#paint6_linear_1_62)" />
  <path
     d="M 48.465791,21.084815 45.622497,19.36437 c 0.733434,-3.530766 0.501728,-6.665803 -0.716997,-10.5419327 -0.0594,-0.1888301 0.06143,-0.3881779 0.256867,-0.419479 l 2.518538,-0.4033385 c 0.161698,-0.0259 0.317759,0.075522 0.361079,0.2335047 1.391573,5.0811175 1.518597,8.3873265 0.423807,12.8516905 z"
     fill="url(#paint7_linear_1_62)"
     id="path16"
     style="fill:url(#paint7_linear_1_62)" />
  <defs
     id="defs31">
    <linearGradient
       id="paint0_linear_1_62"
       x1="17.1032"
       y1="8.01348"
       x2="19.2876"
       y2="24.947"
       gradientUnits="userSpaceOnUse"
       gradientTransform="rotate(7.1701733,26.3146,15.282432)">
      <stop
         stop-color="#18181B"
         id="stop16" />
      <stop
         offset="1"
         stop-color="#3F3F46"
         id="stop17" />
    </linearGradient>
    <linearGradient
       id="paint1_linear_1_62"
       x1="45.9056"
       y1="5.43463"
       x2="47.8015"
       y2="20.1316"
       gradientUnits="userSpaceOnUse"
       gradientTransform="rotate(7.1701733,26.3146,15.282432)">
      <stop
         stop-color="#18181B"
         id="stop18" />
      <stop
         offset="1"
         stop-color="#3F3F46"
         id="stop19" />
    </linearGradient>
    <linearGradient
       id="paint2_linear_1_62"
       x1="34.4134"
       y1="22.9137"
       x2="16.5215"
       y2="25.2218"
       gradientUnits="userSpaceOnUse"
       gradientTransform="rotate(7.1701733,26.3146,15.282432)">
      <stop
         stop-color="#18181B"
         id="stop20" />
      <stop
         offset="1"
         stop-color="#3F3F46"
         id="stop21" />
    </linearGradient>
    <linearGradient
       id="paint3_linear_1_62"
       x1="32.2506"
       y1="6.13981"
       x2="14.3586"
       y2="8.44787"
       gradientUnits="userSpaceOnUse"
       gradientTransform="rotate(7.1701733,26.3146,15.282432)">
      <stop
         stop-color="#18181B"
         id="stop22" />
      <stop
         offset="1"
         stop-color="#3F3F46"
         id="stop23" />
    </linearGradient>
    <linearGradient
       id="paint4_linear_1_62"
       x1="34.2585"
       y1="22.9349"
       x2="45.6008"
       y2="21.4718"
       gradientUnits="userSpaceOnUse"
       gradientTransform="rotate(7.1701733,26.3146,15.282432)">
      <stop
         stop-color="#18181B"
         id="stop24" />
      <stop
         offset="1"
         stop-color="#737381"
         id="stop25" />
    </linearGradient>
    <linearGradient
       id="paint5_linear_1_62"
       x1="32.0945"
       y1="6.16052"
       x2="43.4367"
       y2="4.69736"
       gradientUnits="userSpaceOnUse"
       gradientTransform="rotate(7.1701733,26.3146,15.282432)">
      <stop
         stop-color="#18181B"
         id="stop26" />
      <stop
         offset="1"
         stop-color="#737381"
         id="stop27" />
    </linearGradient>
    <linearGradient
       id="paint6_linear_1_62"
       x1="15.6375"
       y1="28.4219"
       x2="19.1319"
       y2="10.1874"
       gradientUnits="userSpaceOnUse"
       gradientTransform="rotate(7.1701733,26.3146,15.282432)">
      <stop
         stop-color="#E4E4E7"
         id="stop28" />
      <stop
         offset="1"
         stop-color="#E4E4E7"
         stop-opacity="0"
         id="stop29" />
    </linearGradient>
    <linearGradient
       id="paint7_linear_1_62"
       x1="46.8759"
       y1="27.6143"
       x2="54.5985"
       y2="16.4416"
       gradientUnits="userSpaceOnUse"
       gradientTransform="rotate(7.1701733,26.3146,15.282432)">
      <stop
         stop-color="#E4E4E7"
         id="stop30" />
      <stop
         offset="1"
         stop-color="#E4E4E7"
         stop-opacity="0"
         id="stop31" />
    </linearGradient>
  </defs>
</svg>
